<svg width="2139" height="458" viewBox="0 0 2139 458" fill="none" xmlns="http://www.w3.org/2000/svg">
<rect width="2139" height="458" rx="229" fill="#BFA181"/>
<mask id="path-2-outside-1_1958_5" maskUnits="userSpaceOnUse" x="190" y="107" width="1716" height="264" fill="black">
<rect fill="white" x="190" y="107" width="1716" height="264"/>
<path d="M229.281 129.5V357H200.531V129.5H229.281ZM306 231.844V256.531H223.812V231.844H306ZM318.969 129.5V154.188H223.812V129.5H318.969ZM357.625 280.594V264.5C357.625 251.375 359.292 239.865 362.625 229.969C365.958 219.969 370.594 211.635 376.531 204.969C382.469 198.302 389.396 193.302 397.312 189.969C405.229 186.531 413.719 184.812 422.781 184.812C432.052 184.812 440.646 186.531 448.562 189.969C456.479 193.302 463.406 198.302 469.344 204.969C475.385 211.635 480.073 219.969 483.406 229.969C486.74 239.865 488.406 251.375 488.406 264.5V280.594C488.406 293.719 486.74 305.281 483.406 315.281C480.073 325.177 475.438 333.458 469.5 340.125C463.562 346.792 456.635 351.792 448.719 355.125C440.802 358.458 432.26 360.125 423.094 360.125C413.927 360.125 405.385 358.458 397.469 355.125C389.552 351.792 382.573 346.792 376.531 340.125C370.594 333.458 365.958 325.177 362.625 315.281C359.292 305.281 357.625 293.719 357.625 280.594ZM385.281 264.5V280.594C385.281 289.865 386.219 297.99 388.094 304.969C389.969 311.948 392.625 317.781 396.062 322.469C399.5 327.156 403.51 330.698 408.094 333.094C412.677 335.385 417.677 336.531 423.094 336.531C429.344 336.531 434.812 335.385 439.5 333.094C444.292 330.698 448.25 327.156 451.375 322.469C454.5 317.781 456.844 311.948 458.406 304.969C459.969 297.99 460.75 289.865 460.75 280.594V264.5C460.75 255.229 459.812 247.156 457.938 240.281C456.062 233.302 453.406 227.469 449.969 222.781C446.531 217.99 442.469 214.448 437.781 212.156C433.198 209.76 428.198 208.562 422.781 208.562C417.469 208.562 412.521 209.76 407.938 212.156C403.354 214.448 399.344 217.99 395.906 222.781C392.573 227.469 389.969 233.302 388.094 240.281C386.219 247.156 385.281 255.229 385.281 264.5ZM534.25 280.594V264.5C534.25 251.375 535.917 239.865 539.25 229.969C542.583 219.969 547.219 211.635 553.156 204.969C559.094 198.302 566.021 193.302 573.938 189.969C581.854 186.531 590.344 184.812 599.406 184.812C608.677 184.812 617.271 186.531 625.188 189.969C633.104 193.302 640.031 198.302 645.969 204.969C652.01 211.635 656.698 219.969 660.031 229.969C663.365 239.865 665.031 251.375 665.031 264.5V280.594C665.031 293.719 663.365 305.281 660.031 315.281C656.698 325.177 652.062 333.458 646.125 340.125C640.188 346.792 633.26 351.792 625.344 355.125C617.427 358.458 608.885 360.125 599.719 360.125C590.552 360.125 582.01 358.458 574.094 355.125C566.177 351.792 559.198 346.792 553.156 340.125C547.219 333.458 542.583 325.177 539.25 315.281C535.917 305.281 534.25 293.719 534.25 280.594ZM561.906 264.5V280.594C561.906 289.865 562.844 297.99 564.719 304.969C566.594 311.948 569.25 317.781 572.688 322.469C576.125 327.156 580.135 330.698 584.719 333.094C589.302 335.385 594.302 336.531 599.719 336.531C605.969 336.531 611.438 335.385 616.125 333.094C620.917 330.698 624.875 327.156 628 322.469C631.125 317.781 633.469 311.948 635.031 304.969C636.594 297.99 637.375 289.865 637.375 280.594V264.5C637.375 255.229 636.438 247.156 634.562 240.281C632.688 233.302 630.031 227.469 626.594 222.781C623.156 217.99 619.094 214.448 614.406 212.156C609.823 209.76 604.823 208.562 599.406 208.562C594.094 208.562 589.146 209.76 584.562 212.156C579.979 214.448 575.969 217.99 572.531 222.781C569.198 227.469 566.594 233.302 564.719 240.281C562.844 247.156 561.906 255.229 561.906 264.5ZM805.25 324.188V117H832.75V357H807.594L805.25 324.188ZM710.719 280.594V264.812C710.719 250.854 712.073 238.875 714.781 228.875C717.49 218.771 721.344 210.49 726.344 204.031C731.344 197.469 737.333 192.625 744.312 189.5C751.292 186.375 759 184.812 767.438 184.812C776.188 184.812 783.688 186.583 789.938 190.125C796.292 193.667 801.604 198.823 805.875 205.594C810.146 212.26 813.479 220.385 815.875 229.969C818.375 239.448 820.042 250.177 820.875 262.156V283.25C819.938 295.125 818.219 305.802 815.719 315.281C813.323 324.76 809.99 332.833 805.719 339.5C801.448 346.167 796.135 351.271 789.781 354.812C783.427 358.354 775.875 360.125 767.125 360.125C758.792 360.125 751.188 358.51 744.312 355.281C737.438 351.948 731.448 347 726.344 340.438C721.344 333.771 717.49 325.49 714.781 315.594C712.073 305.594 710.719 293.927 710.719 280.594ZM738.375 264.812V280.594C738.375 289.969 739.052 298.146 740.406 305.125C741.76 312 743.896 317.729 746.812 322.312C749.729 326.792 753.427 330.125 757.906 332.312C762.49 334.5 767.958 335.594 774.312 335.594C782.021 335.594 788.323 333.719 793.219 329.969C798.115 326.219 802.021 321.271 804.938 315.125C807.958 308.875 810.354 302.156 812.125 294.969V250.594C811.083 245.281 809.573 240.177 807.594 235.281C805.615 230.281 803.115 225.854 800.094 222C797.177 218.042 793.583 214.917 789.312 212.625C785.146 210.333 780.25 209.188 774.625 209.188C768.271 209.188 762.75 210.333 758.062 212.625C753.479 214.917 749.729 218.354 746.812 222.938C744 227.521 741.865 233.302 740.406 240.281C739.052 247.26 738.375 255.438 738.375 264.812ZM1084.12 299.5C1084.12 294.188 1083.5 289.5 1082.25 285.438C1081 281.271 1078.81 277.521 1075.69 274.188C1072.56 270.854 1068.19 267.677 1062.56 264.656C1056.94 261.635 1049.8 258.562 1041.16 255.438C1031.78 252.104 1023.29 248.406 1015.69 244.344C1008.08 240.177 1001.57 235.438 996.156 230.125C990.844 224.812 986.729 218.719 983.812 211.844C980.896 204.969 979.438 197.104 979.438 188.25C979.438 179.396 980.948 171.219 983.969 163.719C987.094 156.219 991.469 149.708 997.094 144.188C1002.82 138.562 1009.7 134.188 1017.72 131.062C1025.74 127.938 1034.7 126.375 1044.59 126.375C1059.39 126.375 1071.83 129.656 1081.94 136.219C1092.15 142.677 1099.85 151.167 1105.06 161.688C1110.27 172.104 1112.88 183.25 1112.88 195.125H1084.12C1084.12 186.583 1082.72 179.031 1079.91 172.469C1077.2 165.802 1072.93 160.594 1067.09 156.844C1061.36 152.99 1053.86 151.062 1044.59 151.062C1036.26 151.062 1029.39 152.677 1023.97 155.906C1018.66 159.135 1014.7 163.51 1012.09 169.031C1009.59 174.552 1008.34 180.854 1008.34 187.938C1008.34 192.729 1009.18 197.104 1010.84 201.062C1012.51 204.917 1015.06 208.51 1018.5 211.844C1022.04 215.177 1026.42 218.25 1031.62 221.062C1036.94 223.875 1043.19 226.583 1050.38 229.188C1061.52 232.833 1071.05 236.896 1078.97 241.375C1086.89 245.854 1093.34 250.906 1098.34 256.531C1103.34 262.052 1106.99 268.354 1109.28 275.438C1111.68 282.417 1112.88 290.333 1112.88 299.188C1112.88 308.458 1111.31 316.844 1108.19 324.344C1105.17 331.844 1100.74 338.25 1094.91 343.562C1089.07 348.875 1082.04 352.99 1073.81 355.906C1065.58 358.719 1056.31 360.125 1046 360.125C1037.04 360.125 1028.24 358.667 1019.59 355.75C1011.05 352.833 1003.29 348.458 996.312 342.625C989.333 336.792 983.76 329.604 979.594 321.062C975.427 312.417 973.344 302.417 973.344 291.062H1002.09C1002.09 298.875 1003.24 305.594 1005.53 311.219C1007.82 316.74 1011 321.323 1015.06 324.969C1019.12 328.615 1023.76 331.323 1028.97 333.094C1034.28 334.76 1039.96 335.594 1046 335.594C1054.33 335.594 1061.31 334.135 1066.94 331.219C1072.67 328.302 1076.94 324.135 1079.75 318.719C1082.67 313.302 1084.12 306.896 1084.12 299.5ZM1190.44 117V357H1162.78V117H1190.44ZM1183.72 266.062L1172.47 265.594C1172.36 254.031 1173.67 243.354 1176.38 233.562C1179.19 223.667 1183.15 215.073 1188.25 207.781C1193.46 200.49 1199.66 194.865 1206.84 190.906C1214.03 186.844 1222 184.812 1230.75 184.812C1237.62 184.812 1243.88 185.958 1249.5 188.25C1255.12 190.438 1259.92 193.979 1263.88 198.875C1267.83 203.771 1270.85 210.125 1272.94 217.938C1275.12 225.646 1276.22 235.073 1276.22 246.219V357H1248.56V245.906C1248.56 237.052 1247.57 229.969 1245.59 224.656C1243.72 219.24 1240.8 215.333 1236.84 212.938C1232.99 210.438 1228.09 209.188 1222.16 209.188C1216.74 209.188 1211.69 210.698 1207 213.719C1202.31 216.74 1198.2 220.906 1194.66 226.219C1191.22 231.531 1188.51 237.625 1186.53 244.5C1184.66 251.271 1183.72 258.458 1183.72 266.062ZM1416.28 328.094V236.375C1416.28 229.708 1415.24 224.344 1413.16 220.281C1411.18 216.219 1408.16 213.25 1404.09 211.375C1400.14 209.5 1395.14 208.562 1389.09 208.562C1383.26 208.562 1378.21 209.76 1373.94 212.156C1369.77 214.552 1366.54 217.729 1364.25 221.688C1362.06 225.646 1360.97 230.021 1360.97 234.812H1333.31C1333.31 228.771 1334.61 222.781 1337.22 216.844C1339.93 210.906 1343.78 205.542 1348.78 200.75C1353.78 195.854 1359.77 192 1366.75 189.188C1373.83 186.271 1381.75 184.812 1390.5 184.812C1400.92 184.812 1410.14 186.531 1418.16 189.969C1426.18 193.302 1432.48 198.771 1437.06 206.375C1441.65 213.979 1443.94 224.083 1443.94 236.688V320.125C1443.94 325.75 1444.35 331.74 1445.19 338.094C1446.12 344.448 1447.43 349.917 1449.09 354.5V357H1420.5C1419.15 353.667 1418.1 349.24 1417.38 343.719C1416.65 338.094 1416.28 332.885 1416.28 328.094ZM1420.66 254.5L1420.97 274.812H1401.75C1395.19 274.812 1389.2 275.542 1383.78 277C1378.47 278.458 1373.89 280.594 1370.03 283.406C1366.18 286.115 1363.21 289.5 1361.12 293.562C1359.15 297.625 1358.16 302.26 1358.16 307.469C1358.16 314.24 1359.09 319.656 1360.97 323.719C1362.84 327.677 1365.66 330.542 1369.41 332.312C1373.16 334.083 1377.9 334.969 1383.62 334.969C1390.6 334.969 1396.75 333.354 1402.06 330.125C1407.38 326.896 1411.49 322.99 1414.41 318.406C1417.43 313.823 1418.83 309.552 1418.62 305.594L1424.72 318.562C1424.3 322.625 1422.95 327.052 1420.66 331.844C1418.47 336.531 1415.4 341.062 1411.44 345.438C1407.48 349.708 1402.79 353.25 1397.38 356.062C1392.06 358.771 1386.07 360.125 1379.41 360.125C1369.61 360.125 1361.02 358.25 1353.62 354.5C1346.33 350.75 1340.66 345.229 1336.59 337.938C1332.53 330.646 1330.5 321.635 1330.5 310.906C1330.5 302.781 1331.91 295.281 1334.72 288.406C1337.53 281.531 1341.7 275.594 1347.22 270.594C1352.74 265.49 1359.67 261.531 1368 258.719C1376.44 255.906 1386.18 254.5 1397.22 254.5H1420.66ZM1530.56 214.5V357H1502.91V187.938H1529.62L1530.56 214.5ZM1572.59 187L1572.75 213.875C1570.46 213.354 1568.38 213.042 1566.5 212.938C1564.73 212.729 1562.65 212.625 1560.25 212.625C1555.04 212.625 1550.46 213.667 1546.5 215.75C1542.65 217.833 1539.31 220.75 1536.5 224.5C1533.69 228.25 1531.45 232.729 1529.78 237.938C1528.11 243.042 1526.97 248.667 1526.34 254.812L1519.16 259.5C1519.16 249.292 1519.94 239.708 1521.5 230.75C1523.17 221.792 1525.72 213.875 1529.16 207C1532.59 200.021 1536.97 194.604 1542.28 190.75C1547.7 186.792 1554.16 184.812 1561.66 184.812C1563.32 184.812 1565.35 185.073 1567.75 185.594C1570.25 186.01 1571.86 186.479 1572.59 187ZM1673.75 360.125C1663.65 360.125 1654.53 358.615 1646.41 355.594C1638.28 352.573 1631.35 347.99 1625.62 341.844C1619.9 335.594 1615.52 327.729 1612.5 318.25C1609.48 308.771 1607.97 297.573 1607.97 284.656V265.594C1607.97 250.698 1609.69 238.094 1613.12 227.781C1616.67 217.469 1621.41 209.188 1627.34 202.938C1633.28 196.583 1640 192 1647.5 189.188C1655 186.271 1662.71 184.812 1670.62 184.812C1681.25 184.812 1690.31 186.531 1697.81 189.969C1705.31 193.406 1711.41 198.51 1716.09 205.281C1720.78 212.052 1724.22 220.385 1726.41 230.281C1728.7 240.177 1729.84 251.583 1729.84 264.5V280.594H1624.22V257H1702.19V253.094C1701.77 244.344 1700.57 236.635 1698.59 229.969C1696.72 223.302 1693.59 218.094 1689.22 214.344C1684.84 210.49 1678.65 208.562 1670.62 208.562C1665.52 208.562 1660.78 209.448 1656.41 211.219C1652.14 212.885 1648.44 215.854 1645.31 220.125C1642.29 224.292 1639.9 230.073 1638.12 237.469C1636.46 244.865 1635.62 254.24 1635.62 265.594V284.656C1635.62 293.719 1636.46 301.531 1638.12 308.094C1639.9 314.552 1642.45 319.917 1645.78 324.188C1649.22 328.354 1653.39 331.479 1658.28 333.562C1663.28 335.542 1668.96 336.531 1675.31 336.531C1684.58 336.531 1692.24 334.76 1698.28 331.219C1704.32 327.573 1709.58 322.938 1714.06 317.312L1728.59 334.656C1725.57 338.927 1721.61 343.042 1716.72 347C1711.93 350.854 1705.99 354.031 1698.91 356.531C1691.93 358.927 1683.54 360.125 1673.75 360.125ZM1867.88 324.188V117H1895.38V357H1870.22L1867.88 324.188ZM1773.34 280.594V264.812C1773.34 250.854 1774.7 238.875 1777.41 228.875C1780.11 218.771 1783.97 210.49 1788.97 204.031C1793.97 197.469 1799.96 192.625 1806.94 189.5C1813.92 186.375 1821.62 184.812 1830.06 184.812C1838.81 184.812 1846.31 186.583 1852.56 190.125C1858.92 193.667 1864.23 198.823 1868.5 205.594C1872.77 212.26 1876.1 220.385 1878.5 229.969C1881 239.448 1882.67 250.177 1883.5 262.156V283.25C1882.56 295.125 1880.84 305.802 1878.34 315.281C1875.95 324.76 1872.61 332.833 1868.34 339.5C1864.07 346.167 1858.76 351.271 1852.41 354.812C1846.05 358.354 1838.5 360.125 1829.75 360.125C1821.42 360.125 1813.81 358.51 1806.94 355.281C1800.06 351.948 1794.07 347 1788.97 340.438C1783.97 333.771 1780.11 325.49 1777.41 315.594C1774.7 305.594 1773.34 293.927 1773.34 280.594ZM1801 264.812V280.594C1801 289.969 1801.68 298.146 1803.03 305.125C1804.39 312 1806.52 317.729 1809.44 322.312C1812.35 326.792 1816.05 330.125 1820.53 332.312C1825.11 334.5 1830.58 335.594 1836.94 335.594C1844.65 335.594 1850.95 333.719 1855.84 329.969C1860.74 326.219 1864.65 321.271 1867.56 315.125C1870.58 308.875 1872.98 302.156 1874.75 294.969V250.594C1873.71 245.281 1872.2 240.177 1870.22 235.281C1868.24 230.281 1865.74 225.854 1862.72 222C1859.8 218.042 1856.21 214.917 1851.94 212.625C1847.77 210.333 1842.88 209.188 1837.25 209.188C1830.9 209.188 1825.38 210.333 1820.69 212.625C1816.1 214.917 1812.35 218.354 1809.44 222.938C1806.62 227.521 1804.49 233.302 1803.03 240.281C1801.68 247.26 1801 255.438 1801 264.812Z"/>
</mask>
<path d="M229.281 129.5H239.281V119.5H229.281V129.5ZM229.281 357V367H239.281V357H229.281ZM200.531 357H190.531V367H200.531V357ZM200.531 129.5V119.5H190.531V129.5H200.531ZM306 231.844H316V221.844H306V231.844ZM306 256.531V266.531H316V256.531H306ZM223.812 256.531H213.812V266.531H223.812V256.531ZM223.812 231.844V221.844H213.812V231.844H223.812ZM318.969 129.5H328.969V119.5H318.969V129.5ZM318.969 154.188V164.188H328.969V154.188H318.969ZM223.812 154.188H213.812V164.188H223.812V154.188ZM223.812 129.5V119.5H213.812V129.5H223.812ZM219.281 129.5V357H239.281V129.5H219.281ZM229.281 347H200.531V367H229.281V347ZM210.531 357V129.5H190.531V357H210.531ZM200.531 139.5H229.281V119.5H200.531V139.5ZM296 231.844V256.531H316V231.844H296ZM306 246.531H223.812V266.531H306V246.531ZM233.812 256.531V231.844H213.812V256.531H233.812ZM223.812 241.844H306V221.844H223.812V241.844ZM308.969 129.5V154.188H328.969V129.5H308.969ZM318.969 144.188H223.812V164.188H318.969V144.188ZM233.812 154.188V129.5H213.812V154.188H233.812ZM223.812 139.5H318.969V119.5H223.812V139.5ZM362.625 229.969L372.102 233.161L372.107 233.146L372.112 233.131L362.625 229.969ZM397.312 189.969L401.193 199.185L401.244 199.164L401.295 199.141L397.312 189.969ZM448.562 189.969L444.58 199.141L444.631 199.164L444.682 199.185L448.562 189.969ZM469.344 204.969L461.876 211.62L461.905 211.652L461.934 211.684L469.344 204.969ZM483.406 229.969L473.919 233.131L473.924 233.146L473.929 233.161L483.406 229.969ZM483.406 315.281L492.883 318.473L492.888 318.458L492.893 318.444L483.406 315.281ZM376.531 340.125L369.064 346.776L369.092 346.808L369.121 346.84L376.531 340.125ZM362.625 315.281L353.138 318.444L353.143 318.458L353.148 318.473L362.625 315.281ZM408.094 333.094L403.461 341.956L403.541 341.998L403.622 342.038L408.094 333.094ZM439.5 333.094L443.892 342.078L443.932 342.058L443.972 342.038L439.5 333.094ZM457.938 240.281L448.28 242.876L448.285 242.894L448.29 242.912L457.938 240.281ZM449.969 222.781L441.843 228.61L441.874 228.653L441.905 228.695L449.969 222.781ZM437.781 212.156L433.149 221.019L433.268 221.081L433.389 221.14L437.781 212.156ZM407.938 212.156L412.41 221.101L412.49 221.06L412.57 221.019L407.938 212.156ZM395.906 222.781L387.781 216.952L387.769 216.969L387.757 216.986L395.906 222.781ZM388.094 240.281L397.741 242.912L397.746 242.894L397.751 242.876L388.094 240.281ZM367.625 280.594V264.5H347.625V280.594H367.625ZM367.625 264.5C367.625 252.194 369.191 241.803 372.102 233.161L353.148 226.777C349.392 237.926 347.625 250.556 347.625 264.5H367.625ZM372.112 233.131C375.092 224.19 379.112 217.106 383.999 211.62L369.064 198.318C362.075 206.164 356.824 215.748 353.138 226.806L372.112 233.131ZM383.999 211.62C388.987 206.02 394.702 201.918 401.193 199.185L393.432 180.752C384.089 184.686 375.951 190.585 369.064 198.318L383.999 211.62ZM401.295 199.141C407.893 196.277 415.019 194.812 422.781 194.812V174.812C412.418 174.812 402.566 176.786 393.33 180.796L401.295 199.141ZM422.781 194.812C430.785 194.812 438.011 196.289 444.58 199.141L452.545 180.796C443.281 176.773 433.319 174.812 422.781 174.812V194.812ZM444.682 199.185C451.173 201.918 456.888 206.02 461.876 211.62L476.811 198.318C469.924 190.585 461.786 184.686 452.443 180.752L444.682 199.185ZM461.934 211.684C466.898 217.162 470.95 224.223 473.919 233.131L492.893 226.806C489.196 215.714 483.872 206.109 476.754 198.254L461.934 211.684ZM473.929 233.161C476.84 241.803 478.406 252.194 478.406 264.5H498.406C498.406 250.556 496.639 237.926 492.883 226.777L473.929 233.161ZM478.406 264.5V280.594H498.406V264.5H478.406ZM478.406 280.594C478.406 292.896 476.841 303.353 473.919 312.119L492.893 318.444C496.638 307.209 498.406 294.541 498.406 280.594H478.406ZM473.929 312.089C470.954 320.922 466.935 327.969 462.032 333.474L476.968 346.776C483.94 338.948 489.192 329.432 492.883 318.473L473.929 312.089ZM462.032 333.474C457.045 339.074 451.329 343.176 444.838 345.909L452.599 364.341C461.942 360.408 470.08 354.509 476.968 346.776L462.032 333.474ZM444.838 345.909C438.231 348.691 431.018 350.125 423.094 350.125V370.125C433.503 370.125 443.373 368.226 452.599 364.341L444.838 345.909ZM423.094 350.125C415.169 350.125 407.957 348.691 401.349 345.909L393.588 364.341C402.814 368.226 412.685 370.125 423.094 370.125V350.125ZM401.349 345.909C394.841 343.168 389.051 339.048 383.941 333.41L369.121 346.84C376.095 354.536 384.263 360.415 393.588 364.341L401.349 345.909ZM383.999 333.474C379.096 327.969 375.077 320.922 372.102 312.089L353.148 318.473C356.839 329.432 362.091 338.948 369.064 346.776L383.999 333.474ZM372.112 312.119C369.19 303.353 367.625 292.896 367.625 280.594H347.625C347.625 294.541 349.393 307.209 353.138 318.444L372.112 312.119ZM375.281 264.5V280.594H395.281V264.5H375.281ZM375.281 280.594C375.281 290.507 376.28 299.539 378.436 307.563L397.751 302.374C396.157 296.44 395.281 289.222 395.281 280.594H375.281ZM378.436 307.563C380.557 315.458 383.675 322.487 387.998 328.382L404.127 316.555C401.575 313.076 399.38 308.438 397.751 302.374L378.436 307.563ZM387.998 328.382C392.227 334.148 397.364 338.769 403.461 341.956L412.726 324.231C409.657 322.627 406.773 320.164 404.127 316.555L387.998 328.382ZM403.622 342.038C409.673 345.064 416.216 346.531 423.094 346.531V326.531C419.139 326.531 415.682 325.707 412.566 324.149L403.622 342.038ZM423.094 346.531C430.568 346.531 437.593 345.157 443.892 342.078L435.108 324.11C432.032 325.613 428.119 326.531 423.094 326.531V346.531ZM443.972 342.038C450.402 338.823 455.657 334.074 459.696 328.016L443.054 316.922C440.843 320.239 438.182 322.573 435.028 324.149L443.972 342.038ZM459.696 328.016C463.659 322.071 466.403 315.023 468.165 307.153L448.648 302.784C447.285 308.873 445.341 313.491 443.054 316.922L459.696 328.016ZM468.165 307.153C469.927 299.282 470.75 290.396 470.75 280.594H450.75C450.75 289.333 450.011 296.697 448.648 302.784L468.165 307.153ZM470.75 280.594V264.5H450.75V280.594H470.75ZM470.75 264.5C470.75 254.591 469.752 245.595 467.585 237.65L448.29 242.912C449.873 248.717 450.75 255.867 450.75 264.5H470.75ZM467.595 237.687C465.474 229.792 462.356 222.763 458.033 216.868L441.905 228.695C444.456 232.174 446.651 236.812 448.28 242.876L467.595 237.687ZM458.094 216.952C453.82 210.994 448.532 206.281 442.173 203.172L433.389 221.14C436.406 222.615 439.243 224.985 441.843 228.61L458.094 216.952ZM442.414 203.294C436.332 200.115 429.732 198.562 422.781 198.562V218.562C426.663 218.562 430.063 219.406 433.149 221.019L442.414 203.294ZM422.781 198.562C415.901 198.562 409.358 200.13 403.305 203.294L412.57 221.019C415.684 219.391 419.037 218.562 422.781 218.562V198.562ZM403.465 203.212C397.224 206.333 392.021 211.041 387.781 216.952L404.032 228.61C406.666 224.938 409.484 222.563 412.41 221.101L403.465 203.212ZM387.757 216.986C383.583 222.855 380.544 229.842 378.436 237.687L397.751 242.876C399.394 236.762 401.563 232.083 404.056 228.576L387.757 216.986ZM378.446 237.65C376.279 245.595 375.281 254.591 375.281 264.5H395.281C395.281 255.867 396.158 248.717 397.741 242.912L378.446 237.65ZM539.25 229.969L548.727 233.161L548.732 233.146L548.737 233.131L539.25 229.969ZM573.938 189.969L577.818 199.185L577.869 199.164L577.92 199.141L573.938 189.969ZM625.188 189.969L621.205 199.141L621.256 199.164L621.307 199.185L625.188 189.969ZM645.969 204.969L638.501 211.62L638.53 211.652L638.559 211.684L645.969 204.969ZM660.031 229.969L650.544 233.131L650.549 233.146L650.554 233.161L660.031 229.969ZM660.031 315.281L669.508 318.473L669.513 318.458L669.518 318.444L660.031 315.281ZM553.156 340.125L545.689 346.776L545.717 346.808L545.746 346.84L553.156 340.125ZM539.25 315.281L529.763 318.444L529.768 318.458L529.773 318.473L539.25 315.281ZM584.719 333.094L580.086 341.956L580.166 341.998L580.247 342.038L584.719 333.094ZM616.125 333.094L620.517 342.078L620.557 342.058L620.597 342.038L616.125 333.094ZM634.562 240.281L624.905 242.876L624.91 242.894L624.915 242.912L634.562 240.281ZM626.594 222.781L618.468 228.61L618.499 228.653L618.53 228.695L626.594 222.781ZM614.406 212.156L609.774 221.019L609.893 221.081L610.014 221.14L614.406 212.156ZM584.562 212.156L589.035 221.101L589.115 221.06L589.195 221.019L584.562 212.156ZM572.531 222.781L564.406 216.952L564.394 216.969L564.382 216.986L572.531 222.781ZM564.719 240.281L574.366 242.912L574.371 242.894L574.376 242.876L564.719 240.281ZM544.25 280.594V264.5H524.25V280.594H544.25ZM544.25 264.5C544.25 252.194 545.816 241.803 548.727 233.161L529.773 226.777C526.017 237.926 524.25 250.556 524.25 264.5H544.25ZM548.737 233.131C551.717 224.19 555.737 217.106 560.624 211.62L545.689 198.318C538.7 206.164 533.449 215.748 529.763 226.806L548.737 233.131ZM560.624 211.62C565.612 206.02 571.327 201.918 577.818 199.185L570.057 180.752C560.714 184.686 552.576 190.585 545.689 198.318L560.624 211.62ZM577.92 199.141C584.518 196.277 591.644 194.812 599.406 194.812V174.812C589.043 174.812 579.191 176.786 569.955 180.796L577.92 199.141ZM599.406 194.812C607.41 194.812 614.636 196.289 621.205 199.141L629.17 180.796C619.906 176.773 609.944 174.812 599.406 174.812V194.812ZM621.307 199.185C627.798 201.918 633.513 206.02 638.501 211.62L653.436 198.318C646.549 190.585 638.411 184.686 629.068 180.752L621.307 199.185ZM638.559 211.684C643.523 217.162 647.575 224.223 650.544 233.131L669.518 226.806C665.821 215.714 660.497 206.109 653.379 198.254L638.559 211.684ZM650.554 233.161C653.465 241.803 655.031 252.194 655.031 264.5H675.031C675.031 250.556 673.264 237.926 669.508 226.777L650.554 233.161ZM655.031 264.5V280.594H675.031V264.5H655.031ZM655.031 280.594C655.031 292.896 653.466 303.353 650.544 312.119L669.518 318.444C673.263 307.209 675.031 294.541 675.031 280.594H655.031ZM650.554 312.089C647.579 320.922 643.56 327.969 638.657 333.474L653.593 346.776C660.565 338.948 665.817 329.432 669.508 318.473L650.554 312.089ZM638.657 333.474C633.67 339.074 627.954 343.176 621.463 345.909L629.224 364.341C638.567 360.408 646.705 354.509 653.593 346.776L638.657 333.474ZM621.463 345.909C614.856 348.691 607.643 350.125 599.719 350.125V370.125C610.128 370.125 619.998 368.226 629.224 364.341L621.463 345.909ZM599.719 350.125C591.794 350.125 584.582 348.691 577.974 345.909L570.213 364.341C579.439 368.226 589.31 370.125 599.719 370.125V350.125ZM577.974 345.909C571.466 343.168 565.676 339.048 560.566 333.41L545.746 346.84C552.72 354.536 560.888 360.415 570.213 364.341L577.974 345.909ZM560.624 333.474C555.721 327.969 551.702 320.922 548.727 312.089L529.773 318.473C533.464 329.432 538.716 338.948 545.689 346.776L560.624 333.474ZM548.737 312.119C545.815 303.353 544.25 292.896 544.25 280.594H524.25C524.25 294.541 526.018 307.209 529.763 318.444L548.737 312.119ZM551.906 264.5V280.594H571.906V264.5H551.906ZM551.906 280.594C551.906 290.507 552.905 299.539 555.061 307.563L574.376 302.374C572.782 296.44 571.906 289.222 571.906 280.594H551.906ZM555.061 307.563C557.182 315.458 560.3 322.487 564.623 328.382L580.752 316.555C578.2 313.076 576.005 308.438 574.376 302.374L555.061 307.563ZM564.623 328.382C568.852 334.148 573.989 338.769 580.086 341.956L589.351 324.231C586.282 322.627 583.398 320.164 580.752 316.555L564.623 328.382ZM580.247 342.038C586.298 345.064 592.841 346.531 599.719 346.531V326.531C595.764 326.531 592.307 325.707 589.191 324.149L580.247 342.038ZM599.719 346.531C607.193 346.531 614.218 345.157 620.517 342.078L611.733 324.11C608.657 325.613 604.744 326.531 599.719 326.531V346.531ZM620.597 342.038C627.027 338.823 632.282 334.074 636.321 328.016L619.679 316.922C617.468 320.239 614.807 322.573 611.653 324.149L620.597 342.038ZM636.321 328.016C640.284 322.071 643.028 315.023 644.79 307.153L625.273 302.784C623.91 308.873 621.966 313.491 619.679 316.922L636.321 328.016ZM644.79 307.153C646.552 299.282 647.375 290.396 647.375 280.594H627.375C627.375 289.333 626.636 296.697 625.273 302.784L644.79 307.153ZM647.375 280.594V264.5H627.375V280.594H647.375ZM647.375 264.5C647.375 254.591 646.377 245.595 644.21 237.65L624.915 242.912C626.498 248.717 627.375 255.867 627.375 264.5H647.375ZM644.22 237.687C642.099 229.792 638.981 222.763 634.658 216.868L618.53 228.695C621.081 232.174 623.276 236.812 624.905 242.876L644.22 237.687ZM634.719 216.952C630.445 210.994 625.157 206.281 618.798 203.172L610.014 221.14C613.031 222.615 615.868 224.985 618.468 228.61L634.719 216.952ZM619.039 203.294C612.957 200.115 606.357 198.562 599.406 198.562V218.562C603.288 218.562 606.688 219.406 609.774 221.019L619.039 203.294ZM599.406 198.562C592.526 198.562 585.983 200.13 579.93 203.294L589.195 221.019C592.309 219.391 595.662 218.562 599.406 218.562V198.562ZM580.09 203.212C573.849 206.333 568.646 211.041 564.406 216.952L580.657 228.61C583.291 224.938 586.109 222.563 589.035 221.101L580.09 203.212ZM564.382 216.986C560.208 222.855 557.169 229.842 555.061 237.687L574.376 242.876C576.019 236.762 578.188 232.083 580.681 228.576L564.382 216.986ZM555.071 237.65C552.904 245.595 551.906 254.591 551.906 264.5H571.906C571.906 255.867 572.783 248.717 574.366 242.912L555.071 237.65ZM805.25 324.188H795.25V324.544L795.275 324.9L805.25 324.188ZM805.25 117V107H795.25V117H805.25ZM832.75 117H842.75V107H832.75V117ZM832.75 357V367H842.75V357H832.75ZM807.594 357L797.619 357.712L798.283 367H807.594V357ZM714.781 228.875L724.434 231.489L724.437 231.477L724.44 231.464L714.781 228.875ZM726.344 204.031L734.251 210.153L734.275 210.122L734.298 210.092L726.344 204.031ZM789.938 190.125L785.007 198.825L785.038 198.843L785.069 198.86L789.938 190.125ZM805.875 205.594L797.417 210.929L797.436 210.958L797.455 210.988L805.875 205.594ZM815.875 229.969L806.174 232.394L806.189 232.457L806.206 232.519L815.875 229.969ZM820.875 262.156H830.875V261.809L830.851 261.462L820.875 262.156ZM820.875 283.25L830.844 284.037L830.875 283.644V283.25H820.875ZM815.719 315.281L806.049 312.731L806.036 312.781L806.024 312.831L815.719 315.281ZM805.719 339.5L797.298 334.106L797.298 334.106L805.719 339.5ZM744.312 355.281L739.95 364.279L740.005 364.306L740.061 364.333L744.312 355.281ZM726.344 340.438L718.344 346.438L718.396 346.508L718.45 346.577L726.344 340.438ZM714.781 315.594L705.129 318.208L705.132 318.221L705.136 318.234L714.781 315.594ZM740.406 305.125L730.589 307.03L730.592 307.044L730.595 307.058L740.406 305.125ZM746.812 322.312L738.376 327.681L738.404 327.725L738.433 327.769L746.812 322.312ZM757.906 332.312L753.518 341.298L753.558 341.318L753.599 341.337L757.906 332.312ZM804.938 315.125L795.934 310.773L795.919 310.805L795.903 310.838L804.938 315.125ZM812.125 294.969L821.835 297.361L822.125 296.182V294.969H812.125ZM812.125 250.594H822.125V249.623L821.938 248.67L812.125 250.594ZM807.594 235.281L798.296 238.962L798.309 238.995L798.323 239.029L807.594 235.281ZM800.094 222L792.043 227.932L792.131 228.052L792.223 228.169L800.094 222ZM789.312 212.625L784.493 221.387L784.539 221.412L784.584 221.437L789.312 212.625ZM758.062 212.625L753.67 203.641L753.63 203.661L753.59 203.681L758.062 212.625ZM746.812 222.938L738.376 217.569L738.332 217.638L738.289 217.707L746.812 222.938ZM740.406 240.281L730.618 238.236L730.603 238.306L730.589 238.376L740.406 240.281ZM815.25 324.188V117H795.25V324.188H815.25ZM805.25 127H832.75V107H805.25V127ZM822.75 117V357H842.75V117H822.75ZM832.75 347H807.594V367H832.75V347ZM817.568 356.288L815.225 323.475L795.275 324.9L797.619 357.712L817.568 356.288ZM720.719 280.594V264.812H700.719V280.594H720.719ZM720.719 264.812C720.719 251.453 722.02 240.4 724.434 231.489L705.129 226.261C702.126 237.35 700.719 250.256 700.719 264.812H720.719ZM724.44 231.464C726.897 222.297 730.257 215.312 734.251 210.153L718.437 197.91C712.431 205.667 708.082 215.245 705.122 226.286L724.44 231.464ZM734.298 210.092C738.367 204.751 743.064 201.016 748.399 198.627L740.226 180.373C731.602 184.234 724.32 190.187 718.389 197.971L734.298 210.092ZM748.399 198.627C753.965 196.135 760.262 194.812 767.438 194.812V174.812C757.738 174.812 748.618 176.615 740.226 180.373L748.399 198.627ZM767.438 194.812C774.834 194.812 780.556 196.303 785.007 198.825L794.868 181.425C786.819 176.864 777.541 174.812 767.438 174.812V194.812ZM785.069 198.86C789.818 201.507 793.948 205.428 797.417 210.929L814.333 200.259C809.261 192.217 802.766 185.827 794.806 181.39L785.069 198.86ZM797.455 210.988C801.016 216.547 803.978 223.614 806.174 232.394L825.576 227.543C822.98 217.157 819.276 207.974 814.295 200.199L797.455 210.988ZM806.206 232.519C808.514 241.273 810.1 251.364 810.899 262.85L830.851 261.462C829.983 248.99 828.236 237.623 825.544 227.419L806.206 232.519ZM810.875 262.156V283.25H830.875V262.156H810.875ZM810.906 282.463C810.006 293.864 808.369 303.937 806.049 312.731L825.388 317.831C828.069 307.667 829.869 296.386 830.844 284.037L810.906 282.463ZM806.024 312.831C803.832 321.502 800.871 328.529 797.298 334.106L814.139 344.894C819.108 337.137 822.814 328.019 825.414 317.732L806.024 312.831ZM797.298 334.106C793.837 339.509 789.7 343.409 784.913 346.078L794.65 363.547C802.57 359.133 809.059 352.825 814.139 344.894L797.298 334.106ZM784.913 346.078C780.322 348.637 774.516 350.125 767.125 350.125V370.125C777.234 370.125 786.533 368.072 794.65 363.547L784.913 346.078ZM767.125 350.125C760.117 350.125 753.984 348.776 748.564 346.23L740.061 364.333C748.391 368.245 757.467 370.125 767.125 370.125V350.125ZM748.675 346.283C743.3 343.677 738.484 339.758 734.237 334.298L718.45 346.577C724.412 354.242 731.575 360.219 739.95 364.279L748.675 346.283ZM734.344 334.438C730.251 328.981 726.877 321.908 724.427 312.954L705.136 318.234C708.102 329.071 712.436 338.561 718.344 346.438L734.344 334.438ZM724.434 312.98C722.011 304.035 720.719 293.283 720.719 280.594H700.719C700.719 294.571 702.135 307.153 705.129 318.208L724.434 312.98ZM728.375 264.812V280.594H748.375V264.812H728.375ZM728.375 280.594C728.375 290.419 729.082 299.261 730.589 307.03L750.223 303.22C749.022 297.03 748.375 289.519 748.375 280.594H728.375ZM730.595 307.058C732.123 314.816 734.629 321.793 738.376 327.681L755.249 316.944C753.163 313.666 751.398 309.184 750.218 303.192L730.595 307.058ZM738.433 327.769C742.262 333.65 747.296 338.259 753.518 341.298L762.295 323.327C759.558 321.991 757.196 319.933 755.192 316.856L738.433 327.769ZM753.599 341.337C759.822 344.307 766.832 345.594 774.312 345.594V325.594C769.084 325.594 765.158 324.693 762.214 323.288L753.599 341.337ZM774.312 345.594C783.66 345.594 792.261 343.299 799.3 337.908L787.138 322.03C784.385 324.139 780.382 325.594 774.312 325.594V345.594ZM799.3 337.908C805.582 333.096 810.446 326.842 813.972 319.412L795.903 310.838C793.596 315.699 790.648 319.342 787.138 322.03L799.3 337.908ZM813.941 319.477C817.284 312.56 819.908 305.18 821.835 297.361L802.415 292.577C800.8 299.133 798.633 305.19 795.934 310.773L813.941 319.477ZM822.125 294.969V250.594H802.125V294.969H822.125ZM821.938 248.67C820.777 242.749 819.088 237.033 816.865 231.533L798.323 239.029C800.058 243.321 801.389 247.813 802.312 252.518L821.938 248.67ZM816.892 231.601C814.593 225.794 811.633 220.512 807.964 215.831L792.223 228.169C794.596 231.196 796.636 234.769 798.296 238.962L816.892 231.601ZM808.144 216.068C804.361 210.933 799.638 206.817 794.041 203.813L784.584 221.437C787.528 223.016 789.994 225.15 792.043 227.932L808.144 216.068ZM794.132 203.863C788.24 200.622 781.626 199.188 774.625 199.188V219.188C778.874 219.188 782.052 220.044 784.493 221.387L794.132 203.863ZM774.625 199.188C767.075 199.188 759.991 200.551 753.67 203.641L762.455 221.609C765.509 220.116 769.467 219.188 774.625 219.188V199.188ZM753.59 203.681C747.287 206.832 742.205 211.552 738.376 217.569L755.249 228.306C757.254 225.156 759.671 223.001 762.535 221.569L753.59 203.681ZM738.289 217.707C734.715 223.533 732.239 230.476 730.618 238.236L750.195 242.327C751.49 236.129 753.285 231.509 755.336 228.168L738.289 217.707ZM730.589 238.376C729.082 246.145 728.375 254.987 728.375 264.812H748.375C748.375 255.888 749.022 248.376 750.223 242.186L730.589 238.376ZM1082.25 285.438L1072.67 288.311L1072.68 288.345L1072.69 288.378L1082.25 285.438ZM1075.69 274.188L1068.39 281.027L1075.69 274.188ZM1041.16 255.438L1044.56 246.033L1044.53 246.024L1044.51 246.015L1041.16 255.438ZM1015.69 244.344L1010.88 253.114L1010.93 253.139L1010.98 253.164L1015.69 244.344ZM996.156 230.125L989.085 237.196L989.12 237.23L989.154 237.264L996.156 230.125ZM983.969 163.719L974.738 159.873L974.715 159.927L974.693 159.983L983.969 163.719ZM997.094 144.188L1004.1 151.324L1004.1 151.323L997.094 144.188ZM1081.94 136.219L1076.49 144.605L1076.54 144.638L1076.59 144.67L1081.94 136.219ZM1105.06 161.688L1096.1 166.124L1096.11 166.142L1096.12 166.16L1105.06 161.688ZM1112.88 195.125V205.125H1122.88V195.125H1112.88ZM1084.12 195.125H1074.12V205.125H1084.12V195.125ZM1079.91 172.469L1070.64 176.233L1070.68 176.321L1070.71 176.408L1079.91 172.469ZM1067.09 156.844L1061.51 165.141L1061.6 165.199L1061.69 165.256L1067.09 156.844ZM1023.97 155.906L1018.85 147.317L1018.81 147.339L1018.77 147.361L1023.97 155.906ZM1012.09 169.031L1003.05 164.765L1003.02 164.835L1002.98 164.906L1012.09 169.031ZM1010.84 201.062L1001.63 204.943L1001.65 204.987L1001.67 205.032L1010.84 201.062ZM1018.5 211.844L1011.54 219.023L1011.59 219.075L1011.65 219.126L1018.5 211.844ZM1031.62 221.062L1026.87 229.862L1026.91 229.881L1026.95 229.9L1031.62 221.062ZM1050.38 229.188L1046.97 238.589L1047.12 238.643L1047.27 238.692L1050.38 229.188ZM1098.34 256.531L1090.87 263.175L1090.9 263.21L1090.93 263.244L1098.34 256.531ZM1109.28 275.438L1099.77 278.516L1099.79 278.6L1099.82 278.684L1109.28 275.438ZM1108.19 324.344L1098.96 320.498L1098.93 320.552L1098.91 320.608L1108.19 324.344ZM1073.81 355.906L1077.05 365.369L1077.1 365.351L1077.15 365.332L1073.81 355.906ZM1019.59 355.75L1016.36 365.213L1016.38 365.219L1016.4 365.225L1019.59 355.75ZM996.312 342.625L989.899 350.298L996.312 342.625ZM979.594 321.062L970.585 325.404L970.596 325.425L970.606 325.447L979.594 321.062ZM973.344 291.062V281.062H963.344V291.062H973.344ZM1002.09 291.062H1012.09V281.062H1002.09V291.062ZM1005.53 311.219L996.27 314.992L996.283 315.022L996.295 315.053L1005.53 311.219ZM1028.97 333.094L1025.75 342.561L1025.86 342.6L1025.98 342.635L1028.97 333.094ZM1066.94 331.219L1062.4 322.307L1062.37 322.324L1062.33 322.341L1066.94 331.219ZM1079.75 318.719L1070.95 313.978L1070.91 314.044L1070.88 314.111L1079.75 318.719ZM1094.12 299.5C1094.12 293.428 1093.41 287.715 1091.81 282.497L1072.69 288.378C1073.59 291.285 1074.12 294.947 1074.12 299.5H1094.12ZM1091.83 282.564C1090.11 276.842 1087.11 271.751 1082.98 267.348L1068.39 281.027C1070.51 283.291 1071.89 285.7 1072.67 288.311L1091.83 282.564ZM1082.98 267.348C1078.89 262.978 1073.52 259.193 1067.29 255.846L1057.83 273.466C1062.85 276.162 1066.24 278.731 1068.39 281.027L1082.98 267.348ZM1067.29 255.846C1061.1 252.519 1053.48 249.258 1044.56 246.033L1037.76 264.842C1046.13 267.867 1052.78 270.752 1057.83 273.466L1067.29 255.846ZM1044.51 246.015C1035.53 242.824 1027.5 239.319 1020.4 235.524L1010.98 253.164C1019.08 257.493 1028.03 261.385 1037.81 264.86L1044.51 246.015ZM1020.49 235.574C1013.58 231.786 1007.84 227.573 1003.16 222.986L989.154 237.264C995.31 243.302 1002.59 248.568 1010.88 253.114L1020.49 235.574ZM1003.23 223.054C998.818 218.644 995.43 213.623 993.018 207.938L974.607 215.749C978.028 223.814 982.87 230.981 989.085 237.196L1003.23 223.054ZM993.018 207.938C990.714 202.506 989.438 196.007 989.438 188.25H969.438C969.438 198.201 971.078 207.432 974.607 215.749L993.018 207.938ZM989.438 188.25C989.438 180.554 990.746 173.659 993.245 167.455L974.693 159.983C971.15 168.778 969.438 178.238 969.438 188.25H989.438ZM993.2 167.565C995.826 161.261 999.458 155.879 1004.1 151.324L990.089 137.051C983.48 143.538 978.361 151.177 974.738 159.873L993.2 167.565ZM1004.1 151.323C1008.79 146.713 1014.5 143.05 1021.35 140.38L1014.09 121.745C1004.9 125.325 996.851 130.412 990.088 137.052L1004.1 151.323ZM1021.35 140.38C1028.05 137.768 1035.76 136.375 1044.59 136.375V116.375C1033.64 116.375 1023.43 118.107 1014.09 121.745L1021.35 140.38ZM1044.59 136.375C1057.89 136.375 1068.34 139.313 1076.49 144.605L1087.38 127.832C1075.32 119.999 1060.88 116.375 1044.59 116.375V136.375ZM1076.59 144.67C1085.3 150.177 1091.73 157.297 1096.1 166.124L1114.02 157.251C1107.98 145.036 1099 135.177 1087.28 127.768L1076.59 144.67ZM1096.12 166.16C1100.62 175.16 1102.88 184.771 1102.88 195.125H1122.88C1122.88 181.729 1119.92 169.049 1114.01 157.215L1096.12 166.16ZM1112.88 185.125H1084.12V205.125H1112.88V185.125ZM1094.12 195.125C1094.12 185.49 1092.54 176.556 1089.1 168.53L1070.71 176.408C1072.9 181.506 1074.12 187.677 1074.12 195.125H1094.12ZM1089.17 168.705C1085.72 160.205 1080.14 153.341 1072.5 148.432L1061.69 165.256C1065.72 167.847 1068.68 171.399 1070.64 176.233L1089.17 168.705ZM1072.68 148.547C1064.82 143.261 1055.19 141.062 1044.59 141.062V161.062C1052.54 161.062 1057.91 162.718 1061.51 165.141L1072.68 148.547ZM1044.59 141.062C1035.02 141.062 1026.23 142.913 1018.85 147.317L1029.09 164.496C1032.54 162.441 1037.5 161.062 1044.59 161.062V141.062ZM1018.77 147.361C1011.82 151.588 1006.51 157.437 1003.05 164.765L1021.14 173.297C1022.89 169.584 1025.49 166.682 1029.16 164.451L1018.77 147.361ZM1002.98 164.906C999.806 171.924 998.344 179.669 998.344 187.938H1018.34C1018.34 182.039 1019.38 177.181 1021.2 173.156L1002.98 164.906ZM998.344 187.938C998.344 193.908 999.387 199.622 1001.63 204.943L1020.06 197.182C1018.97 194.587 1018.34 191.551 1018.34 187.938H998.344ZM1001.67 205.032C1003.92 210.248 1007.29 214.903 1011.54 219.023L1025.46 204.665C1022.84 202.118 1021.1 199.585 1020.02 197.093L1001.67 205.032ZM1011.65 219.126C1015.94 223.166 1021.06 226.722 1026.87 229.862L1036.38 212.263C1031.77 209.778 1028.14 207.188 1025.35 204.562L1011.65 219.126ZM1026.95 229.9C1032.76 232.979 1039.46 235.867 1046.97 238.589L1053.78 219.786C1046.92 217.299 1041.11 214.771 1036.3 212.225L1026.95 229.9ZM1047.27 238.692C1057.95 242.187 1066.84 246.004 1074.04 250.078L1083.89 232.672C1075.26 227.788 1065.09 223.479 1053.48 219.683L1047.27 238.692ZM1074.04 250.078C1081.2 254.125 1086.73 258.523 1090.87 263.175L1105.82 249.888C1099.95 243.289 1092.57 237.583 1083.89 232.672L1074.04 250.078ZM1090.93 263.244C1094.98 267.716 1097.91 272.78 1099.77 278.516L1118.8 272.359C1116.07 263.929 1111.71 256.388 1105.76 249.818L1090.93 263.244ZM1099.82 278.684C1101.8 284.434 1102.88 291.224 1102.88 299.188H1122.88C1122.88 289.443 1121.56 280.4 1118.74 272.191L1099.82 278.684ZM1102.88 299.188C1102.88 307.323 1101.51 314.376 1098.96 320.498L1117.42 328.19C1121.12 319.311 1122.88 309.594 1122.88 299.188H1102.88ZM1098.91 320.608C1096.44 326.749 1092.87 331.895 1088.17 336.169L1101.64 350.956C1108.61 344.605 1113.9 336.939 1117.46 328.08L1098.91 320.608ZM1088.17 336.169C1083.42 340.494 1077.58 343.961 1070.47 346.481L1077.15 365.332C1086.5 362.018 1094.72 357.256 1101.64 350.956L1088.17 336.169ZM1070.58 346.444C1063.56 348.841 1055.41 350.125 1046 350.125V370.125C1057.21 370.125 1067.6 368.596 1077.05 365.369L1070.58 346.444ZM1046 350.125C1038.15 350.125 1030.43 348.85 1022.79 346.275L1016.4 365.225C1026.05 368.483 1035.93 370.125 1046 370.125V350.125ZM1022.83 346.287C1015.45 343.77 1008.77 340.005 1002.73 334.952L989.899 350.298C997.813 356.912 1006.65 361.897 1016.36 365.213L1022.83 346.287ZM1002.73 334.952C996.875 330.062 992.159 324.013 988.581 316.678L970.606 325.447C975.362 335.196 981.792 343.521 989.899 350.298L1002.73 334.952ZM988.602 316.721C985.197 309.655 983.344 301.186 983.344 291.062H963.344C963.344 303.647 965.657 315.178 970.585 325.404L988.602 316.721ZM973.344 301.062H1002.09V281.062H973.344V301.062ZM992.094 291.062C992.094 299.815 993.373 307.88 996.27 314.992L1014.79 307.446C1013.11 303.308 1012.09 297.935 1012.09 291.062H992.094ZM996.295 315.053C999.104 321.819 1003.11 327.677 1008.38 332.411L1021.74 317.526C1018.89 314.969 1016.54 311.66 1014.77 307.385L996.295 315.053ZM1008.38 332.411C1013.46 336.966 1019.27 340.36 1025.75 342.561L1032.19 323.626C1028.25 322.286 1024.79 320.263 1021.74 317.526L1008.38 332.411ZM1025.98 342.635C1032.34 344.631 1039.03 345.594 1046 345.594V325.594C1040.89 325.594 1036.23 324.89 1031.96 323.552L1025.98 342.635ZM1046 345.594C1055.45 345.594 1064.12 343.946 1071.54 340.096L1062.33 322.341C1058.51 324.325 1053.22 325.594 1046 325.594V345.594ZM1071.47 340.13C1078.96 336.321 1084.8 330.698 1088.62 323.327L1070.88 314.111C1069.08 317.573 1066.38 320.284 1062.4 322.307L1071.47 340.13ZM1088.55 323.46C1092.4 316.319 1094.12 308.218 1094.12 299.5H1074.12C1074.12 305.574 1072.93 310.285 1070.95 313.978L1088.55 323.46ZM1190.44 117H1200.44V107H1190.44V117ZM1190.44 357V367H1200.44V357H1190.44ZM1162.78 357H1152.78V367H1162.78V357ZM1162.78 117V107H1152.78V117H1162.78ZM1183.72 266.062L1183.3 276.054L1193.72 276.488V266.062H1183.72ZM1172.47 265.594L1162.47 265.684L1162.55 275.189L1172.05 275.585L1172.47 265.594ZM1176.38 233.562L1166.76 230.829L1166.75 230.863L1166.74 230.897L1176.38 233.562ZM1188.25 207.781L1180.11 201.969L1180.08 202.008L1180.06 202.047L1188.25 207.781ZM1206.84 190.906L1211.67 199.666L1211.72 199.639L1211.76 199.612L1206.84 190.906ZM1249.5 188.25L1245.73 197.511L1245.8 197.541L1245.88 197.57L1249.5 188.25ZM1263.88 198.875L1271.65 192.588L1263.88 198.875ZM1272.94 217.938L1263.28 220.514L1263.3 220.591L1263.32 220.668L1272.94 217.938ZM1276.22 357V367H1286.22V357H1276.22ZM1248.56 357H1238.56V367H1248.56V357ZM1245.59 224.656L1236.14 227.927L1236.18 228.038L1236.22 228.147L1245.59 224.656ZM1236.84 212.938L1231.4 221.327L1231.53 221.412L1231.67 221.493L1236.84 212.938ZM1194.66 226.219L1186.34 220.672L1186.3 220.729L1186.26 220.786L1194.66 226.219ZM1186.53 244.5L1176.92 241.734L1176.91 241.782L1176.89 241.831L1186.53 244.5ZM1180.44 117V357H1200.44V117H1180.44ZM1190.44 347H1162.78V367H1190.44V347ZM1172.78 357V117H1152.78V357H1172.78ZM1162.78 127H1190.44V107H1162.78V127ZM1184.14 256.071L1172.89 255.602L1172.05 275.585L1183.3 276.054L1184.14 256.071ZM1182.47 265.504C1182.37 254.746 1183.58 245.009 1186.01 236.228L1166.74 230.897C1163.75 241.7 1162.36 253.316 1162.47 265.684L1182.47 265.504ZM1185.99 236.296C1188.55 227.309 1192.07 219.764 1196.44 213.516L1180.06 202.047C1174.22 210.382 1169.83 220.024 1166.76 230.829L1185.99 236.296ZM1196.39 213.594C1200.81 207.406 1205.91 202.837 1211.67 199.666L1202.02 182.147C1193.4 186.892 1186.11 193.573 1180.11 201.969L1196.39 213.594ZM1211.76 199.612C1217.36 196.449 1223.62 194.812 1230.75 194.812V174.812C1220.38 174.812 1210.7 177.239 1201.92 182.201L1211.76 199.612ZM1230.75 194.812C1236.5 194.812 1241.45 195.768 1245.73 197.511L1253.27 178.989C1246.3 176.149 1238.75 174.812 1230.75 174.812V194.812ZM1245.88 197.57C1249.8 199.098 1253.19 201.561 1256.1 205.162L1271.65 192.588C1266.65 186.397 1260.45 181.777 1253.12 178.93L1245.88 197.57ZM1256.1 205.162C1258.96 208.704 1261.45 213.687 1263.28 220.514L1282.6 215.361C1280.25 206.563 1276.7 198.838 1271.65 192.588L1256.1 205.162ZM1263.32 220.668C1265.18 227.217 1266.22 235.665 1266.22 246.219H1286.22C1286.22 234.481 1285.07 224.074 1282.56 215.207L1263.32 220.668ZM1266.22 246.219V357H1286.22V246.219H1266.22ZM1276.22 347H1248.56V367H1276.22V347ZM1258.56 357V245.906H1238.56V357H1258.56ZM1258.56 245.906C1258.56 236.454 1257.53 228.041 1254.96 221.165L1236.22 228.147C1237.62 231.897 1238.56 237.65 1238.56 245.906H1258.56ZM1255.04 221.385C1252.59 214.306 1248.42 208.255 1242.02 204.382L1231.67 221.493C1233.18 222.412 1234.84 224.173 1236.14 227.927L1255.04 221.385ZM1242.29 204.548C1236.4 200.73 1229.47 199.188 1222.16 199.188V219.188C1226.72 219.188 1229.58 220.145 1231.4 221.327L1242.29 204.548ZM1222.16 199.188C1214.76 199.188 1207.84 201.284 1201.58 205.313L1212.42 222.124C1215.54 220.112 1218.72 219.188 1222.16 219.188V199.188ZM1201.58 205.313C1195.59 209.178 1190.53 214.382 1186.34 220.672L1202.98 231.766C1205.87 227.431 1209.04 224.302 1212.42 222.124L1201.58 205.313ZM1186.26 220.786C1182.23 227.023 1179.14 234.036 1176.92 241.734L1196.14 247.266C1197.88 241.214 1200.21 236.04 1203.05 231.651L1186.26 220.786ZM1176.89 241.831C1174.76 249.54 1173.72 257.63 1173.72 266.062H1193.72C1193.72 259.286 1194.55 253.002 1196.17 247.169L1176.89 241.831ZM1413.16 220.281L1404.17 224.661L1404.21 224.753L1404.26 224.844L1413.16 220.281ZM1404.09 211.375L1399.81 220.412L1399.86 220.434L1399.9 220.455L1404.09 211.375ZM1373.94 212.156L1369.04 203.435L1369 203.461L1368.95 203.487L1373.94 212.156ZM1364.25 221.688L1355.6 216.677L1355.55 216.763L1355.5 216.851L1364.25 221.688ZM1360.97 234.812V244.812H1370.97V234.812H1360.97ZM1333.31 234.812H1323.31V244.812H1333.31V234.812ZM1337.22 216.844L1328.12 212.694L1328.09 212.76L1328.06 212.827L1337.22 216.844ZM1348.78 200.75L1355.7 207.97L1355.74 207.933L1355.78 207.895L1348.78 200.75ZM1366.75 189.188L1370.49 198.463L1370.52 198.449L1370.56 198.434L1366.75 189.188ZM1418.16 189.969L1414.22 199.16L1414.27 199.182L1414.32 199.203L1418.16 189.969ZM1445.19 338.094L1435.27 339.394L1435.28 339.474L1435.29 339.553L1445.19 338.094ZM1449.09 354.5H1459.09V352.738L1458.49 351.083L1449.09 354.5ZM1449.09 357V367H1459.09V357H1449.09ZM1420.5 357L1411.24 360.764L1413.77 367H1420.5V357ZM1417.38 343.719L1407.46 345.004L1407.46 345.016L1407.46 345.028L1417.38 343.719ZM1420.66 254.5L1430.66 254.346L1430.5 244.5H1420.66V254.5ZM1420.97 274.812V284.812H1431.12L1430.97 274.659L1420.97 274.812ZM1383.78 277L1381.18 267.344L1381.16 267.35L1381.13 267.357L1383.78 277ZM1370.03 283.406L1375.78 291.588L1375.85 291.537L1375.93 291.484L1370.03 283.406ZM1361.12 293.562L1352.23 288.999L1352.18 289.091L1352.14 289.183L1361.12 293.562ZM1360.97 323.719L1351.89 327.909L1351.91 327.955L1351.93 328L1360.97 323.719ZM1414.41 318.406L1406.06 312.903L1406.01 312.97L1405.97 313.037L1414.41 318.406ZM1418.62 305.594L1427.68 301.341L1408.64 306.119L1418.62 305.594ZM1424.72 318.562L1434.67 319.583L1434.95 316.822L1433.77 314.31L1424.72 318.562ZM1420.66 331.844L1411.63 327.529L1411.61 327.572L1411.59 327.615L1420.66 331.844ZM1411.44 345.438L1418.77 352.235L1418.81 352.191L1418.85 352.147L1411.44 345.438ZM1397.38 356.062L1401.92 364.972L1401.95 364.955L1401.98 364.937L1397.38 356.062ZM1353.62 354.5L1349.05 363.393L1349.08 363.406L1349.1 363.419L1353.62 354.5ZM1347.22 270.594L1353.93 278.006L1353.97 277.971L1354.01 277.936L1347.22 270.594ZM1368 258.719L1364.84 249.232L1364.82 249.238L1364.8 249.244L1368 258.719ZM1426.28 328.094V236.375H1406.28V328.094H1426.28ZM1426.28 236.375C1426.28 228.798 1425.12 221.692 1422.05 215.718L1404.26 224.844C1405.36 226.996 1406.28 230.618 1406.28 236.375H1426.28ZM1422.15 215.902C1419.17 209.788 1414.46 205.147 1408.28 202.295L1399.9 220.455C1401.85 221.353 1403.19 222.649 1404.17 224.661L1422.15 215.902ZM1408.37 202.338C1402.67 199.636 1396.09 198.562 1389.09 198.562V218.562C1394.18 218.562 1397.6 219.364 1399.81 220.412L1408.37 202.338ZM1389.09 198.562C1381.87 198.562 1375.07 200.054 1369.04 203.435L1378.83 220.878C1381.34 219.467 1384.65 218.562 1389.09 218.562V198.562ZM1368.95 203.487C1363.34 206.713 1358.81 211.12 1355.6 216.677L1372.9 226.698C1374.27 224.339 1376.2 222.392 1378.92 220.825L1368.95 203.487ZM1355.5 216.851C1352.44 222.378 1350.97 228.433 1350.97 234.812H1370.97C1370.97 231.609 1371.68 228.913 1373 226.524L1355.5 216.851ZM1360.97 224.812H1333.31V244.812H1360.97V224.812ZM1343.31 234.812C1343.31 230.252 1344.29 225.626 1346.38 220.86L1328.06 212.827C1324.94 219.937 1323.31 227.289 1323.31 234.812H1343.31ZM1346.32 220.994C1348.47 216.278 1351.56 211.94 1355.7 207.97L1341.86 193.53C1336 199.144 1331.39 205.535 1328.12 212.694L1346.32 220.994ZM1355.78 207.895C1359.77 203.983 1364.63 200.823 1370.49 198.463L1363.01 179.912C1354.91 183.177 1347.79 187.725 1341.79 193.605L1355.78 207.895ZM1370.56 198.434C1376.27 196.081 1382.87 194.812 1390.5 194.812V174.812C1380.63 174.812 1371.39 176.461 1362.94 179.941L1370.56 198.434ZM1390.5 194.812C1399.82 194.812 1407.66 196.349 1414.22 199.16L1422.1 180.777C1412.61 176.713 1402.01 174.812 1390.5 174.812V194.812ZM1414.32 199.203C1420.32 201.699 1424.99 205.716 1428.5 211.537L1445.63 201.213C1439.97 191.825 1432.03 184.906 1421.99 180.734L1414.32 199.203ZM1428.5 211.537C1431.83 217.062 1433.94 225.178 1433.94 236.688H1453.94C1453.94 222.988 1451.46 210.897 1445.63 201.213L1428.5 211.537ZM1433.94 236.688V320.125H1453.94V236.688H1433.94ZM1433.94 320.125C1433.94 326.24 1434.39 332.667 1435.27 339.394L1455.1 336.793C1454.32 330.812 1453.94 325.26 1453.94 320.125H1433.94ZM1435.29 339.553C1436.3 346.378 1437.74 352.537 1439.7 357.917L1458.49 351.083C1457.11 347.296 1455.95 342.517 1455.08 336.634L1435.29 339.553ZM1439.09 354.5V357H1459.09V354.5H1439.09ZM1449.09 347H1420.5V367H1449.09V347ZM1429.76 353.236C1428.85 350.996 1427.96 347.494 1427.29 342.409L1407.46 345.028C1408.25 350.985 1409.44 356.337 1411.24 360.764L1429.76 353.236ZM1427.29 342.433C1426.61 337.16 1426.28 332.386 1426.28 328.094H1406.28C1406.28 333.385 1406.68 339.028 1407.46 345.004L1427.29 342.433ZM1410.66 254.654L1410.97 274.966L1430.97 274.659L1430.66 254.346L1410.66 254.654ZM1420.97 264.812H1401.75V284.812H1420.97V264.812ZM1401.75 264.812C1394.45 264.812 1387.58 265.622 1381.18 267.344L1386.38 286.656C1390.82 285.461 1395.92 284.812 1401.75 284.812V264.812ZM1381.13 267.357C1374.83 269.087 1369.11 271.7 1364.14 275.328L1375.93 291.484C1378.66 289.487 1382.11 287.83 1386.43 286.643L1381.13 267.357ZM1364.28 275.224C1359.14 278.835 1355.07 283.446 1352.23 288.999L1370.02 298.126C1371.34 295.554 1373.21 293.394 1375.78 291.588L1364.28 275.224ZM1352.14 289.183C1349.4 294.804 1348.16 300.974 1348.16 307.469H1368.16C1368.16 303.547 1368.89 300.446 1370.11 297.942L1352.14 289.183ZM1348.16 307.469C1348.16 315.012 1349.18 322.034 1351.89 327.909L1370.05 319.528C1369.01 317.278 1368.16 313.467 1368.16 307.469H1348.16ZM1351.93 328C1354.74 333.922 1359.17 338.538 1365.14 341.355L1373.68 323.27C1372.14 322.545 1370.95 321.432 1370.01 319.438L1351.93 328ZM1365.14 341.355C1370.63 343.949 1376.95 344.969 1383.62 344.969V324.969C1378.84 324.969 1375.68 324.218 1373.68 323.27L1365.14 341.355ZM1383.62 344.969C1392.21 344.969 1400.19 342.964 1407.26 338.67L1396.87 321.58C1393.31 323.744 1389 324.969 1383.62 324.969V344.969ZM1407.26 338.67C1413.69 334.76 1418.99 329.827 1422.84 323.775L1405.97 313.037C1403.99 316.152 1401.06 319.032 1396.87 321.58L1407.26 338.67ZM1422.76 323.909C1426.51 318.214 1428.97 311.842 1428.61 305.068L1408.64 306.119C1408.7 307.262 1408.34 309.432 1406.06 312.903L1422.76 323.909ZM1409.57 309.846L1415.67 322.815L1433.77 314.31L1427.68 301.341L1409.57 309.846ZM1414.77 317.542C1414.5 320.176 1413.57 323.479 1411.63 327.529L1429.68 336.158C1432.32 330.625 1434.1 325.074 1434.67 319.583L1414.77 317.542ZM1411.59 327.615C1409.88 331.281 1407.4 334.991 1404.02 338.728L1418.85 352.147C1423.39 347.134 1427.05 341.781 1429.72 336.073L1411.59 327.615ZM1404.1 338.64C1400.96 342.026 1397.21 344.88 1392.77 347.188L1401.98 364.937C1408.37 361.62 1413.99 357.39 1418.77 352.235L1404.1 338.64ZM1392.83 347.153C1389.09 349.064 1384.68 350.125 1379.41 350.125V370.125C1387.46 370.125 1395.04 368.478 1401.92 364.972L1392.83 347.153ZM1379.41 350.125C1370.9 350.125 1363.91 348.503 1358.15 345.581L1349.1 363.419C1358.13 367.997 1368.33 370.125 1379.41 370.125V350.125ZM1358.2 345.607C1352.69 342.776 1348.45 338.672 1345.33 333.07L1327.86 342.805C1332.86 351.786 1339.97 358.724 1349.05 363.393L1358.2 345.607ZM1345.33 333.07C1342.3 327.633 1340.5 320.406 1340.5 310.906H1320.5C1320.5 322.864 1322.76 333.659 1327.86 342.805L1345.33 333.07ZM1340.5 310.906C1340.5 303.957 1341.7 297.757 1343.97 292.193L1325.46 284.62C1322.11 292.805 1320.5 301.605 1320.5 310.906H1340.5ZM1343.97 292.193C1346.22 286.705 1349.52 282.005 1353.93 278.006L1340.51 263.182C1333.88 269.182 1328.84 276.358 1325.46 284.62L1343.97 292.193ZM1354.01 277.936C1358.33 273.936 1363.97 270.632 1371.2 268.194L1364.8 249.244C1355.36 252.431 1347.15 257.043 1340.43 263.251L1354.01 277.936ZM1371.16 268.206C1378.37 265.804 1387 264.5 1397.22 264.5V244.5C1385.35 244.5 1374.51 246.009 1364.84 249.232L1371.16 268.206ZM1397.22 264.5H1420.66V244.5H1397.22V264.5ZM1530.56 214.5H1540.56V214.324L1540.56 214.147L1530.56 214.5ZM1530.56 357V367H1540.56V357H1530.56ZM1502.91 357H1492.91V367H1502.91V357ZM1502.91 187.938V177.938H1492.91V187.938H1502.91ZM1529.62 187.938L1539.62 187.585L1539.28 177.938H1529.62V187.938ZM1572.59 187L1582.59 186.942L1582.56 181.832L1578.41 178.863L1572.59 187ZM1572.75 213.875L1570.53 223.626L1582.82 226.419L1582.75 213.817L1572.75 213.875ZM1566.5 212.938L1565.33 222.869L1565.64 222.905L1565.95 222.922L1566.5 212.938ZM1546.5 215.75L1541.84 206.901L1541.79 206.927L1541.74 206.953L1546.5 215.75ZM1529.78 237.938L1539.29 241.042L1539.3 241.013L1539.31 240.985L1529.78 237.938ZM1526.34 254.812L1531.81 263.189L1535.81 260.578L1536.29 255.824L1526.34 254.812ZM1519.16 259.5H1509.16V277.96L1524.62 267.876L1519.16 259.5ZM1521.5 230.75L1511.67 228.921L1511.66 228.976L1511.65 229.032L1521.5 230.75ZM1529.16 207L1538.1 211.472L1538.11 211.445L1538.13 211.418L1529.16 207ZM1542.28 190.75L1548.15 198.844L1548.17 198.834L1548.18 198.824L1542.28 190.75ZM1567.75 185.594L1565.63 195.366L1565.86 195.417L1566.11 195.458L1567.75 185.594ZM1520.56 214.5V357H1540.56V214.5H1520.56ZM1530.56 347H1502.91V367H1530.56V347ZM1512.91 357V187.938H1492.91V357H1512.91ZM1502.91 197.938H1529.62V177.938H1502.91V197.938ZM1519.63 188.29L1520.57 214.853L1540.56 214.147L1539.62 187.585L1519.63 188.29ZM1562.59 187.058L1562.75 213.933L1582.75 213.817L1582.59 186.942L1562.59 187.058ZM1574.97 204.124C1572.26 203.508 1569.61 203.095 1567.05 202.953L1565.95 222.922C1567.14 222.989 1568.66 223.2 1570.53 223.626L1574.97 204.124ZM1567.67 203.006C1565.4 202.74 1562.91 202.625 1560.25 202.625V222.625C1562.38 222.625 1564.05 222.719 1565.33 222.869L1567.67 203.006ZM1560.25 202.625C1553.69 202.625 1547.46 203.946 1541.84 206.901L1551.16 224.599C1553.46 223.387 1556.4 222.625 1560.25 222.625V202.625ZM1541.74 206.953C1536.53 209.771 1532.12 213.676 1528.5 218.5L1544.5 230.5C1546.51 227.824 1548.76 225.896 1551.26 224.547L1541.74 206.953ZM1528.5 218.5C1524.92 223.277 1522.21 228.792 1520.26 234.89L1539.31 240.985C1540.69 236.666 1542.46 233.223 1544.5 230.5L1528.5 218.5ZM1520.28 234.833C1518.36 240.71 1517.08 247.048 1516.4 253.801L1536.29 255.824C1536.86 250.286 1537.87 245.373 1539.29 241.042L1520.28 234.833ZM1520.88 246.436L1513.69 251.124L1524.62 267.876L1531.81 263.189L1520.88 246.436ZM1529.16 259.5C1529.16 249.799 1529.9 240.795 1531.35 232.468L1511.65 229.032C1509.98 238.621 1509.16 248.785 1509.16 259.5H1529.16ZM1531.33 232.579C1532.86 224.374 1535.15 217.374 1538.1 211.472L1520.21 202.528C1516.29 210.376 1513.48 219.209 1511.67 228.921L1531.33 232.579ZM1538.13 211.418C1540.98 205.629 1544.38 201.581 1548.15 198.844L1536.41 182.656C1529.56 187.627 1524.21 194.413 1520.19 202.582L1538.13 211.418ZM1548.18 198.824C1551.69 196.263 1556.02 194.812 1561.66 194.812V174.812C1552.3 174.812 1543.71 177.32 1536.38 182.676L1548.18 198.824ZM1561.66 194.812C1562.36 194.812 1563.63 194.933 1565.63 195.366L1569.87 175.822C1567.07 175.213 1564.29 174.812 1561.66 174.812V194.812ZM1566.11 195.458C1566.61 195.541 1567.02 195.62 1567.36 195.692C1567.69 195.765 1567.92 195.824 1568.05 195.861C1568.19 195.902 1568.15 195.899 1567.99 195.832C1567.91 195.796 1567.76 195.73 1567.57 195.627C1567.38 195.526 1567.1 195.368 1566.78 195.137L1578.41 178.863C1576.64 177.601 1574.74 176.978 1573.62 176.654C1572.3 176.271 1570.86 175.974 1569.39 175.73L1566.11 195.458ZM1625.62 341.844L1618.25 348.601L1618.28 348.632L1618.31 348.663L1625.62 341.844ZM1612.5 318.25L1602.97 321.286L1612.5 318.25ZM1613.12 227.781L1603.67 224.533L1603.65 224.576L1603.64 224.619L1613.12 227.781ZM1627.34 202.938L1634.59 209.825L1634.62 209.795L1634.65 209.765L1627.34 202.938ZM1647.5 189.188L1651.01 198.551L1651.07 198.53L1651.12 198.508L1647.5 189.188ZM1726.41 230.281L1716.64 232.44L1716.65 232.489L1716.66 232.537L1726.41 230.281ZM1729.84 280.594V290.594H1739.84V280.594H1729.84ZM1624.22 280.594H1614.22V290.594H1624.22V280.594ZM1624.22 257V247H1614.22V257H1624.22ZM1702.19 257V267H1712.19V257H1702.19ZM1702.19 253.094H1712.19V252.856L1712.18 252.618L1702.19 253.094ZM1698.59 229.969L1688.97 232.676L1688.99 232.746L1689.01 232.815L1698.59 229.969ZM1689.22 214.344L1682.61 221.847L1682.66 221.892L1682.71 221.936L1689.22 214.344ZM1656.41 211.219L1660.04 220.535L1660.1 220.512L1660.16 220.488L1656.41 211.219ZM1645.31 220.125L1637.24 214.22L1637.23 214.238L1637.22 214.255L1645.31 220.125ZM1638.12 237.469L1628.4 235.14L1628.38 235.205L1628.37 235.27L1638.12 237.469ZM1638.12 308.094L1628.43 310.555L1628.46 310.647L1628.48 310.738L1638.12 308.094ZM1645.78 324.188L1637.9 330.34L1637.98 330.447L1638.07 330.551L1645.78 324.188ZM1658.28 333.562L1654.37 342.764L1654.48 342.814L1654.6 342.861L1658.28 333.562ZM1698.28 331.219L1703.34 339.846L1703.39 339.814L1703.45 339.781L1698.28 331.219ZM1714.06 317.312L1721.73 310.89L1713.87 301.507L1706.24 311.083L1714.06 317.312ZM1728.59 334.656L1736.76 340.431L1741.21 334.14L1736.26 328.234L1728.59 334.656ZM1716.72 347L1722.99 354.792L1723 354.784L1723.01 354.776L1716.72 347ZM1698.91 356.531L1702.15 365.989L1702.19 365.975L1702.23 365.961L1698.91 356.531ZM1673.75 350.125C1664.64 350.125 1656.73 348.764 1649.89 346.221L1642.92 364.967C1652.33 368.465 1662.65 370.125 1673.75 370.125V350.125ZM1649.89 346.221C1643.18 343.724 1637.57 339.996 1632.94 335.025L1618.31 348.663C1625.13 355.983 1633.39 361.422 1642.92 364.967L1649.89 346.221ZM1633 335.087C1628.4 330.075 1624.68 323.548 1622.03 315.214L1602.97 321.286C1606.36 331.91 1611.39 341.112 1618.25 348.601L1633 335.087ZM1622.03 315.214C1619.4 306.959 1617.97 296.832 1617.97 284.656H1597.97C1597.97 298.313 1599.56 310.583 1602.97 321.286L1622.03 315.214ZM1617.97 284.656V265.594H1597.97V284.656H1617.97ZM1617.97 265.594C1617.97 251.404 1619.61 239.937 1622.61 230.944L1603.64 224.619C1599.76 236.251 1597.97 249.992 1597.97 265.594H1617.97ZM1622.58 231.029C1625.78 221.727 1629.87 214.797 1634.59 209.825L1620.09 196.05C1612.94 203.578 1607.56 213.211 1603.67 224.533L1622.58 231.029ZM1634.65 209.765C1639.63 204.439 1645.08 200.777 1651.01 198.551L1643.99 179.824C1634.92 183.223 1626.94 188.728 1620.04 196.11L1634.65 209.765ZM1651.12 198.508C1657.49 196.033 1663.97 194.812 1670.62 194.812V174.812C1661.45 174.812 1652.51 176.509 1643.88 179.867L1651.12 198.508ZM1670.62 194.812C1680.21 194.812 1687.77 196.367 1693.65 199.059L1701.98 180.878C1692.85 176.695 1682.29 174.812 1670.62 174.812V194.812ZM1693.65 199.059C1699.52 201.75 1704.21 205.682 1707.87 210.973L1724.32 199.589C1718.6 191.339 1711.11 185.062 1701.98 180.878L1693.65 199.059ZM1707.87 210.973C1711.67 216.462 1714.67 223.527 1716.64 232.44L1736.17 228.123C1733.77 217.244 1729.89 207.642 1724.32 199.589L1707.87 210.973ZM1716.66 232.537C1718.75 241.525 1719.84 252.148 1719.84 264.5H1739.84C1739.84 251.018 1738.65 238.829 1736.15 228.025L1716.66 232.537ZM1719.84 264.5V280.594H1739.84V264.5H1719.84ZM1729.84 270.594H1624.22V290.594H1729.84V270.594ZM1634.22 280.594V257H1614.22V280.594H1634.22ZM1624.22 267H1702.19V247H1624.22V267ZM1712.19 257V253.094H1692.19V257H1712.19ZM1712.18 252.618C1711.73 243.262 1710.44 234.729 1708.18 227.123L1689.01 232.815C1690.71 238.542 1691.81 245.425 1692.2 253.569L1712.18 252.618ZM1708.22 227.261C1705.92 219.083 1701.88 212.026 1695.73 206.751L1682.71 221.936C1685.31 224.161 1687.52 227.521 1688.97 232.676L1708.22 227.261ZM1695.83 206.84C1689.04 200.86 1680.16 198.562 1670.62 198.562V218.562C1677.13 218.562 1680.65 220.119 1682.61 221.847L1695.83 206.84ZM1670.62 198.562C1664.34 198.562 1658.32 199.658 1652.65 201.949L1660.16 220.488C1663.25 219.238 1666.7 218.562 1670.62 218.562V198.562ZM1652.77 201.903C1646.47 204.363 1641.31 208.656 1637.24 214.22L1653.38 226.03C1655.56 223.053 1657.8 221.408 1660.04 220.535L1652.77 201.903ZM1637.22 214.255C1633.15 219.865 1630.34 227.023 1628.4 235.14L1647.85 239.797C1649.45 233.122 1651.43 228.719 1653.41 225.995L1637.22 214.255ZM1628.37 235.27C1626.48 243.649 1625.62 253.827 1625.62 265.594H1645.62C1645.62 254.652 1646.44 246.08 1647.88 239.667L1628.37 235.27ZM1625.62 265.594V284.656H1645.62V265.594H1625.62ZM1625.62 284.656C1625.62 294.288 1626.51 302.97 1628.43 310.555L1647.82 305.632C1646.41 300.093 1645.62 293.149 1645.62 284.656H1625.62ZM1628.48 310.738C1630.52 318.179 1633.58 324.813 1637.9 330.34L1653.66 318.035C1651.31 315.02 1649.27 310.925 1647.77 305.449L1628.48 310.738ZM1638.07 330.551C1642.51 335.935 1647.97 340.043 1654.37 342.764L1662.2 324.361C1658.8 322.915 1655.93 320.773 1653.49 317.824L1638.07 330.551ZM1654.6 342.861C1660.96 345.38 1667.92 346.531 1675.31 346.531V326.531C1669.99 326.531 1665.6 325.704 1661.96 324.264L1654.6 342.861ZM1675.31 346.531C1685.8 346.531 1695.34 344.532 1703.34 339.846L1693.22 322.592C1689.14 324.989 1683.36 326.531 1675.31 326.531V346.531ZM1703.45 339.781C1710.53 335.509 1716.68 330.078 1721.89 323.542L1706.24 311.083C1702.49 315.797 1698.12 319.636 1693.11 322.657L1703.45 339.781ZM1706.4 323.735L1720.93 341.078L1736.26 328.234L1721.73 310.89L1706.4 323.735ZM1720.43 328.882C1718.03 332.268 1714.75 335.73 1710.43 339.224L1723.01 354.776C1728.48 350.353 1733.11 345.586 1736.76 340.431L1720.43 328.882ZM1710.45 339.208C1706.71 342.217 1701.82 344.897 1695.58 347.101L1702.23 365.961C1710.16 363.166 1717.14 359.491 1722.99 354.792L1710.45 339.208ZM1695.66 347.073C1690 349.015 1682.78 350.125 1673.75 350.125V370.125C1684.31 370.125 1693.85 368.84 1702.15 365.989L1695.66 347.073ZM1867.88 324.188H1857.88V324.544L1857.9 324.9L1867.88 324.188ZM1867.88 117V107H1857.88V117H1867.88ZM1895.38 117H1905.38V107H1895.38V117ZM1895.38 357V367H1905.38V357H1895.38ZM1870.22 357L1860.24 357.712L1860.91 367H1870.22V357ZM1777.41 228.875L1787.06 231.489L1787.06 231.477L1787.07 231.464L1777.41 228.875ZM1788.97 204.031L1796.88 210.153L1796.9 210.122L1796.92 210.092L1788.97 204.031ZM1852.56 190.125L1847.63 198.825L1847.66 198.843L1847.69 198.86L1852.56 190.125ZM1868.5 205.594L1860.04 210.929L1860.06 210.958L1860.08 210.988L1868.5 205.594ZM1878.5 229.969L1868.8 232.394L1868.81 232.457L1868.83 232.519L1878.5 229.969ZM1883.5 262.156H1893.5V261.809L1893.48 261.462L1883.5 262.156ZM1883.5 283.25L1893.47 284.037L1893.5 283.644V283.25H1883.5ZM1878.34 315.281L1868.67 312.731L1868.66 312.781L1868.65 312.831L1878.34 315.281ZM1868.34 339.5L1859.92 334.106L1859.92 334.106L1868.34 339.5ZM1806.94 355.281L1802.57 364.279L1802.63 364.306L1802.69 364.333L1806.94 355.281ZM1788.97 340.438L1780.97 346.438L1781.02 346.508L1781.08 346.577L1788.97 340.438ZM1777.41 315.594L1767.75 318.208L1767.76 318.221L1767.76 318.234L1777.41 315.594ZM1803.03 305.125L1793.21 307.03L1793.22 307.044L1793.22 307.058L1803.03 305.125ZM1809.44 322.312L1801 327.681L1801.03 327.725L1801.06 327.769L1809.44 322.312ZM1820.53 332.312L1816.14 341.298L1816.18 341.318L1816.22 341.337L1820.53 332.312ZM1867.56 315.125L1858.56 310.773L1858.54 310.805L1858.53 310.838L1867.56 315.125ZM1874.75 294.969L1884.46 297.361L1884.75 296.182V294.969H1874.75ZM1874.75 250.594H1884.75V249.623L1884.56 248.67L1874.75 250.594ZM1870.22 235.281L1860.92 238.962L1860.93 238.995L1860.95 239.029L1870.22 235.281ZM1862.72 222L1854.67 227.932L1854.76 228.052L1854.85 228.169L1862.72 222ZM1851.94 212.625L1847.12 221.387L1847.16 221.412L1847.21 221.437L1851.94 212.625ZM1820.69 212.625L1816.3 203.641L1816.26 203.661L1816.22 203.681L1820.69 212.625ZM1809.44 222.938L1801 217.569L1800.96 217.638L1800.91 217.707L1809.44 222.938ZM1803.03 240.281L1793.24 238.236L1793.23 238.306L1793.21 238.376L1803.03 240.281ZM1877.88 324.188V117H1857.88V324.188H1877.88ZM1867.88 127H1895.38V107H1867.88V127ZM1885.38 117V357H1905.38V117H1885.38ZM1895.38 347H1870.22V367H1895.38V347ZM1880.19 356.288L1877.85 323.475L1857.9 324.9L1860.24 357.712L1880.19 356.288ZM1783.34 280.594V264.812H1763.34V280.594H1783.34ZM1783.34 264.812C1783.34 251.453 1784.65 240.4 1787.06 231.489L1767.75 226.261C1764.75 237.35 1763.34 250.256 1763.34 264.812H1783.34ZM1787.07 231.464C1789.52 222.297 1792.88 215.312 1796.88 210.153L1781.06 197.91C1775.06 205.667 1770.71 215.245 1767.75 226.286L1787.07 231.464ZM1796.92 210.092C1800.99 204.751 1805.69 201.016 1811.02 198.627L1802.85 180.373C1794.23 184.234 1786.95 190.187 1781.01 197.971L1796.92 210.092ZM1811.02 198.627C1816.59 196.135 1822.89 194.812 1830.06 194.812V174.812C1820.36 174.812 1811.24 176.615 1802.85 180.373L1811.02 198.627ZM1830.06 194.812C1837.46 194.812 1843.18 196.303 1847.63 198.825L1857.49 181.425C1849.44 176.864 1840.17 174.812 1830.06 174.812V194.812ZM1847.69 198.86C1852.44 201.507 1856.57 205.428 1860.04 210.929L1876.96 200.259C1871.89 192.217 1865.39 185.827 1857.43 181.39L1847.69 198.86ZM1860.08 210.988C1863.64 216.547 1866.6 223.614 1868.8 232.394L1888.2 227.543C1885.6 217.157 1881.9 207.974 1876.92 200.199L1860.08 210.988ZM1868.83 232.519C1871.14 241.273 1872.73 251.364 1873.52 262.85L1893.48 261.462C1892.61 248.99 1890.86 237.623 1888.17 227.419L1868.83 232.519ZM1873.5 262.156V283.25H1893.5V262.156H1873.5ZM1873.53 282.463C1872.63 293.864 1870.99 303.937 1868.67 312.731L1888.01 317.831C1890.69 307.667 1892.49 296.386 1893.47 284.037L1873.53 282.463ZM1868.65 312.831C1866.46 321.502 1863.5 328.529 1859.92 334.106L1876.76 344.894C1881.73 337.137 1885.44 328.019 1888.04 317.732L1868.65 312.831ZM1859.92 334.106C1856.46 339.509 1852.33 343.409 1847.54 346.078L1857.27 363.547C1865.2 359.133 1871.68 352.825 1876.76 344.894L1859.92 334.106ZM1847.54 346.078C1842.95 348.637 1837.14 350.125 1829.75 350.125V370.125C1839.86 370.125 1849.16 368.072 1857.27 363.547L1847.54 346.078ZM1829.75 350.125C1822.74 350.125 1816.61 348.776 1811.19 346.23L1802.69 364.333C1811.02 368.245 1820.09 370.125 1829.75 370.125V350.125ZM1811.3 346.283C1805.92 343.677 1801.11 339.758 1796.86 334.298L1781.08 346.577C1787.04 354.242 1794.2 360.219 1802.57 364.279L1811.3 346.283ZM1796.97 334.438C1792.88 328.981 1789.5 321.908 1787.05 312.954L1767.76 318.234C1770.73 329.071 1775.06 338.561 1780.97 346.438L1796.97 334.438ZM1787.06 312.98C1784.64 304.035 1783.34 293.283 1783.34 280.594H1763.34C1763.34 294.571 1764.76 307.153 1767.75 318.208L1787.06 312.98ZM1791 264.812V280.594H1811V264.812H1791ZM1791 280.594C1791 290.419 1791.71 299.261 1793.21 307.03L1812.85 303.22C1811.65 297.03 1811 289.519 1811 280.594H1791ZM1793.22 307.058C1794.75 314.816 1797.25 321.793 1801 327.681L1817.87 316.944C1815.79 313.666 1814.02 309.184 1812.84 303.192L1793.22 307.058ZM1801.06 327.769C1804.89 333.65 1809.92 338.259 1816.14 341.298L1824.92 323.327C1822.18 321.991 1819.82 319.933 1817.82 316.856L1801.06 327.769ZM1816.22 341.337C1822.45 344.307 1829.46 345.594 1836.94 345.594V325.594C1831.71 325.594 1827.78 324.693 1824.84 323.288L1816.22 341.337ZM1836.94 345.594C1846.29 345.594 1854.89 343.299 1861.92 337.908L1849.76 322.03C1847.01 324.139 1843.01 325.594 1836.94 325.594V345.594ZM1861.92 337.908C1868.21 333.096 1873.07 326.842 1876.6 319.412L1858.53 310.838C1856.22 315.699 1853.27 319.342 1849.76 322.03L1861.92 337.908ZM1876.57 319.477C1879.91 312.56 1882.53 305.18 1884.46 297.361L1865.04 292.577C1863.43 299.133 1861.26 305.19 1858.56 310.773L1876.57 319.477ZM1884.75 294.969V250.594H1864.75V294.969H1884.75ZM1884.56 248.67C1883.4 242.749 1881.71 237.033 1879.49 231.533L1860.95 239.029C1862.68 243.321 1864.01 247.813 1864.94 252.518L1884.56 248.67ZM1879.52 231.601C1877.22 225.794 1874.26 220.512 1870.59 215.831L1854.85 228.169C1857.22 231.196 1859.26 234.769 1860.92 238.962L1879.52 231.601ZM1870.77 216.068C1866.99 210.933 1862.26 206.817 1856.67 203.813L1847.21 221.437C1850.15 223.016 1852.62 225.15 1854.67 227.932L1870.77 216.068ZM1856.76 203.863C1850.86 200.622 1844.25 199.188 1837.25 199.188V219.188C1841.5 219.188 1844.68 220.044 1847.12 221.387L1856.76 203.863ZM1837.25 199.188C1829.7 199.188 1822.62 200.551 1816.3 203.641L1825.08 221.609C1828.13 220.116 1832.09 219.188 1837.25 219.188V199.188ZM1816.22 203.681C1809.91 206.832 1804.83 211.552 1801 217.569L1817.87 228.306C1819.88 225.156 1822.3 223.001 1825.16 221.569L1816.22 203.681ZM1800.91 217.707C1797.34 223.533 1794.86 230.476 1793.24 238.236L1812.82 242.327C1814.11 236.129 1815.91 231.509 1817.96 228.168L1800.91 217.707ZM1793.21 238.376C1791.71 246.145 1791 254.987 1791 264.812H1811C1811 255.888 1811.65 248.376 1812.85 242.186L1793.21 238.376Z" fill="#392918" mask="url(#path-2-outside-1_1958_5)"/>
</svg>
